<svg width="39" height="39" viewBox="0 0 39 39" fill="none" xmlns="http://www.w3.org/2000/svg">
<path d="M9.79688 12.6005C9.79688 10.0543 10.8084 7.61236 12.6088 5.81192C14.4092 4.01148 16.8511 3 19.3974 3C21.9436 3 24.3855 4.01148 26.1859 5.81192C27.9864 7.61236 28.9978 10.0543 28.9978 12.6005V20.6009C28.9978 23.1471 27.9864 25.589 26.1859 27.3894C24.3855 29.1899 21.9436 30.2014 19.3974 30.2014C16.8511 30.2014 14.4092 29.1899 12.6088 27.3894C10.8084 25.589 9.79688 23.1471 9.79688 20.6009V12.6005Z" stroke="white" stroke-width="3.07815"/>
<path d="M9.79688 12.6005C9.79688 10.0543 10.8084 7.61236 12.6088 5.81192C14.4092 4.01148 16.8511 3 19.3974 3C21.9436 3 24.3855 4.01148 26.1859 5.81192C27.9864 7.61236 28.9978 10.0543 28.9978 12.6005V20.6009C28.9978 23.1471 27.9864 25.589 26.1859 27.3894C24.3855 29.1899 21.9436 30.2014 19.3974 30.2014C16.8511 30.2014 14.4092 29.1899 12.6088 27.3894C10.8084 25.589 9.79688 23.1471 9.79688 20.6009V12.6005Z" stroke="url(#paint0_linear_1527_2785)" stroke-width="3.07815"/>
<path d="M9.79688 12.6005C9.79688 10.0543 10.8084 7.61236 12.6088 5.81192C14.4092 4.01148 16.8511 3 19.3974 3C21.9436 3 24.3855 4.01148 26.1859 5.81192C27.9864 7.61236 28.9978 10.0543 28.9978 12.6005V20.6009C28.9978 23.1471 27.9864 25.589 26.1859 27.3894C24.3855 29.1899 21.9436 30.2014 19.3974 30.2014C16.8511 30.2014 14.4092 29.1899 12.6088 27.3894C10.8084 25.589 9.79688 23.1471 9.79688 20.6009V12.6005Z" stroke="white" stroke-width="3.07815"/>
<path d="M16.2006 10.1995C16.2006 10.1995 16.9574 9.39941 19.4007 9.39941C21.844 9.39941 22.6009 10.1995 22.6009 10.1995M16.2006 14.9997C16.2006 14.9997 16.9574 14.1997 19.4007 14.1997C21.844 14.1997 22.6009 14.9997 22.6009 14.9997M33.8014 17.3998V20.6C33.8014 22.4911 33.429 24.3637 32.7053 26.1109C31.9816 27.8581 30.9208 29.4456 29.5836 30.7828C28.2463 32.1201 26.6588 33.1808 24.9116 33.9045C23.1645 34.6282 21.2919 35.0007 19.4007 35.0007C17.5096 35.0007 15.637 34.6282 13.8898 33.9045C12.1426 33.1808 10.5551 32.1201 9.21787 30.7828C7.88064 29.4456 6.81989 27.8581 6.09619 26.1109C5.37249 24.3637 5 22.4911 5 20.6V17.3998" stroke="white" stroke-width="3.07815" stroke-linecap="round"/>
<path d="M16.2006 10.1995C16.2006 10.1995 16.9574 9.39941 19.4007 9.39941C21.844 9.39941 22.6009 10.1995 22.6009 10.1995M16.2006 14.9997C16.2006 14.9997 16.9574 14.1997 19.4007 14.1997C21.844 14.1997 22.6009 14.9997 22.6009 14.9997M33.8014 17.3998V20.6C33.8014 22.4911 33.429 24.3637 32.7053 26.1109C31.9816 27.8581 30.9208 29.4456 29.5836 30.7828C28.2463 32.1201 26.6588 33.1808 24.9116 33.9045C23.1645 34.6282 21.2919 35.0007 19.4007 35.0007C17.5096 35.0007 15.637 34.6282 13.8898 33.9045C12.1426 33.1808 10.5551 32.1201 9.21787 30.7828C7.88064 29.4456 6.81989 27.8581 6.09619 26.1109C5.37249 24.3637 5 22.4911 5 20.6V17.3998" stroke="url(#paint1_linear_1527_2785)" stroke-width="3.07815" stroke-linecap="round"/>
<path d="M16.2006 10.1995C16.2006 10.1995 16.9574 9.39941 19.4007 9.39941C21.844 9.39941 22.6009 10.1995 22.6009 10.1995M16.2006 14.9997C16.2006 14.9997 16.9574 14.1997 19.4007 14.1997C21.844 14.1997 22.6009 14.9997 22.6009 14.9997M33.8014 17.3998V20.6C33.8014 22.4911 33.429 24.3637 32.7053 26.1109C31.9816 27.8581 30.9208 29.4456 29.5836 30.7828C28.2463 32.1201 26.6588 33.1808 24.9116 33.9045C23.1645 34.6282 21.2919 35.0007 19.4007 35.0007C17.5096 35.0007 15.637 34.6282 13.8898 33.9045C12.1426 33.1808 10.5551 32.1201 9.21787 30.7828C7.88064 29.4456 6.81989 27.8581 6.09619 26.1109C5.37249 24.3637 5 22.4911 5 20.6V17.3998" stroke="white" stroke-width="3.07815" stroke-linecap="round"/>
<defs>
<linearGradient id="paint0_linear_1527_2785" x1="17.1908" y1="30.2014" x2="17.0329" y2="3.00047" gradientUnits="userSpaceOnUse">
<stop stop-color="#625AFA"/>
<stop offset="1" stop-color="#5A2FD7"/>
</linearGradient>
<linearGradient id="paint1_linear_1527_2785" x1="16.0909" y1="35.0007" x2="15.9976" y2="9.39933" gradientUnits="userSpaceOnUse">
<stop stop-color="#625AFA"/>
<stop offset="1" stop-color="#5A2FD7"/>
</linearGradient>
</defs>
</svg>
